<svg width="193" height="48" viewBox="0 0 193 48" fill="none" xmlns="http://www.w3.org/2000/svg">
<path fill-rule="evenodd" clip-rule="evenodd" d="M21.6797 2.01388C22.1267 1.78062 22.6611 1.7876 23.1019 2.03247L33.2284 7.65748C33.7046 7.92204 34 8.42403 34 8.96885L33.9993 20.2184C33.9993 20.7772 33.6886 21.2897 33.1932 21.5482L7.31963 35.0478C6.87251 35.2811 6.33809 35.2741 5.89725 35.0291L-4.22655 29.4043C-4.70264 29.1397 -4.99794 28.638 -4.99804 28.0933L-5 16.8436C-5.0001 16.2847 -4.68941 15.7721 -4.19386 15.5135L21.6797 2.01388ZM-1.99984 17.7526L-1.99847 25.6188L20.8753 13.6842L20.874 5.81805L-1.99984 17.7526ZM23.874 5.89309L23.8753 13.7108L30.9995 17.669L30.9999 9.85139L23.874 5.89309ZM29.3361 20.1768L22.3531 16.297L-0.334875 28.1346L6.64812 32.0144L29.3361 20.1768Z" fill="#1570EF"/>
<path opacity="0.5" fill-rule="evenodd" clip-rule="evenodd" d="M7.32034 46.2986C6.87327 46.5319 6.33891 46.5249 5.89809 46.28L-4.22837 40.655C-4.70465 40.3905 -5.00003 39.8885 -4.99999 39.3436L-4.99929 28.0941C-4.99926 27.5353 -4.68859 27.0228 -4.19316 26.7643L21.6804 13.2647C22.1275 13.0314 22.6619 13.0384 23.1028 13.2834L33.2266 18.9082C33.7026 19.1728 33.9979 19.6745 33.998 20.2192L34 31.4689C34.0001 32.0278 33.6894 32.5404 33.1939 32.799L7.32034 46.2986ZM30.9998 30.5599L30.9985 22.6937L8.12467 34.6282L8.12604 42.4944L30.9998 30.5599ZM5.12603 42.4194L5.12466 34.6017L-1.99945 30.6435L-1.99994 38.4611L5.12603 42.4194ZM-0.336134 28.1357L6.64686 32.0155L29.3349 20.1779L22.3519 16.2981L-0.336134 28.1357Z" fill="#1570EF"/>
<path d="M60.065 26.979C60.065 30.678 57.095 33.27 52.235 33.27C47.348 33.27 44.297 30.651 44 26.547H48.158C48.266 28.68 49.643 30.057 52.154 30.057C54.233 30.057 55.718 29.139 55.718 27.573C55.718 26.358 54.773 25.629 53.126 25.305L49.94 24.684C46.997 24.117 44.729 22.524 44.729 19.311C44.729 15.855 47.78 13.371 51.965 13.371C56.312 13.371 59.498 15.909 59.768 19.959H55.61C55.475 17.934 54.071 16.557 52.019 16.557C50.021 16.557 48.887 17.691 48.887 19.041C48.887 20.364 50.102 20.931 51.506 21.201L54.827 21.876C58.229 22.551 60.065 24.117 60.065 26.979Z" fill="#0A0D12"/>
<path d="M70.7568 29.355V32.622C69.8388 33.081 68.9748 33.27 67.8678 33.27C64.8978 33.27 63.0348 31.569 63.0348 28.329V21.795H60.1188V18.582H63.0348V14.316H66.7608V18.582H70.8918V21.795H66.7608V27.465C66.7608 29.139 67.5168 29.814 68.8668 29.814C69.5688 29.814 70.2168 29.652 70.7568 29.355Z" fill="#0A0D12"/>
<path d="M80.6894 33V31.218C79.7444 32.568 78.3134 33.27 76.3424 33.27C73.3454 33.27 71.3474 31.515 71.3474 28.815C71.3474 26.007 73.6154 24.495 77.8274 24.495C78.6374 24.495 79.3394 24.549 80.2304 24.657V23.793C80.2304 22.173 79.3124 21.228 77.7464 21.228C76.1264 21.228 75.1544 22.173 75.0194 23.793H71.6444C71.8604 20.472 74.2634 18.312 77.7464 18.312C81.5264 18.312 83.7404 20.391 83.7404 23.928V33H80.6894ZM74.8844 28.707C74.8844 29.922 75.7484 30.678 77.1524 30.678C79.0694 30.678 80.2304 29.625 80.2304 27.951V26.925C79.3394 26.79 78.7184 26.736 78.0704 26.736C75.9374 26.736 74.8844 27.411 74.8844 28.707Z" fill="#0A0D12"/>
<path d="M91.9695 33.27C87.8115 33.27 84.9495 30.192 84.9495 25.791C84.9495 21.471 87.9195 18.312 91.9695 18.312C95.7225 18.312 98.5035 20.85 98.9625 24.738H95.0205C94.8315 22.821 93.6705 21.633 91.9695 21.633C90.0255 21.633 88.7835 23.226 88.7835 25.791C88.7835 28.383 89.9985 29.949 91.9695 29.949C93.6975 29.949 94.8045 28.815 95.0205 26.844H98.9625C98.5305 30.813 95.8305 33.27 91.9695 33.27Z" fill="#0A0D12"/>
<path d="M104.045 33H100.292V13.614H104.045V24.684L109.31 18.582H113.63L107.663 25.494L114.332 33H109.553L104.045 26.304V33Z" fill="#0A0D12"/>
<path d="M128.538 25.791C128.538 21.525 131.049 18.312 134.937 18.312C136.665 18.312 138.123 19.068 139.203 20.445V13.614H142.929V33H139.5V30.921C138.366 32.433 136.8 33.27 134.937 33.27C131.049 33.27 128.538 30.003 128.538 25.791ZM132.399 25.791C132.399 28.491 133.938 29.922 135.774 29.922C137.637 29.922 139.176 28.464 139.176 25.737C139.176 23.01 137.61 21.633 135.774 21.633C133.938 21.633 132.399 23.037 132.399 25.791Z" fill="#0A0D12"/>
<path d="M162.613 33H150.085V13.614H154.189V29.301H162.613V33Z" fill="#0A0D12"/>
<path d="M172.613 33V31.218C171.668 32.568 170.237 33.27 168.266 33.27C165.269 33.27 163.271 31.515 163.271 28.815C163.271 26.007 165.539 24.495 169.751 24.495C170.561 24.495 171.263 24.549 172.154 24.657V23.793C172.154 22.173 171.236 21.228 169.67 21.228C168.05 21.228 167.078 22.173 166.943 23.793H163.568C163.784 20.472 166.187 18.312 169.67 18.312C173.45 18.312 175.664 20.391 175.664 23.928V33H172.613ZM166.808 28.707C166.808 29.922 167.672 30.678 169.076 30.678C170.993 30.678 172.154 29.625 172.154 27.951V26.925C171.263 26.79 170.642 26.736 169.994 26.736C167.861 26.736 166.808 27.411 166.808 28.707Z" fill="#0A0D12"/>
<path d="M192.209 25.791C192.209 30.003 189.698 33.27 185.81 33.27C183.947 33.27 182.381 32.433 181.274 30.921V33H177.818V13.614H181.571V20.445C182.624 19.041 184.082 18.312 185.81 18.312C189.698 18.312 192.209 21.525 192.209 25.791ZM188.348 25.791C188.348 23.037 186.809 21.633 184.973 21.633C183.164 21.633 181.598 23.01 181.598 25.737C181.598 28.464 183.11 29.922 184.973 29.922C186.809 29.922 188.348 28.491 188.348 25.791Z" fill="#0A0D12"/>
<path d="M121.19 33.243C125.132 33.243 127.913 30.921 127.94 27.627H124.295C124.187 29.274 122.999 30.273 121.136 30.273C119.192 30.273 118.058 29.301 118.058 27.681C118.058 26.088 119.381 25.143 121.622 25.143H123.593V22.173H121.838C120.002 22.173 118.895 21.255 118.895 19.77C118.895 18.339 119.84 17.448 121.406 17.448C122.945 17.448 123.917 18.42 123.944 20.013H127.589C127.562 16.854 124.808 14.478 121.217 14.478C117.383 14.478 115.034 16.557 115.034 19.5C115.034 21.174 116.006 22.497 117.761 23.415C115.493 24.144 114.197 25.602 114.197 27.573C114.197 30.948 117.005 33.243 121.19 33.243Z" fill="#0A0D12"/>
</svg>
