<svg width="166" height="32" viewBox="0 0 166 32" fill="none" xmlns="http://www.w3.org/2000/svg">
<path d="M64.4834 21.2H73.856V18.6138H67.3414V6.53815H64.4834V21.2Z" fill="#E62E05"/>
<path d="M79.488 21.5054C80.6229 21.5054 81.6211 21.261 82.4827 20.7723C83.3513 20.2768 84.0272 19.5946 84.5106 18.7258C85.0009 17.8501 85.2461 16.8421 85.2461 15.7018C85.2461 14.5682 85.0044 13.567 84.5211 12.6981C84.0377 11.8225 83.3617 11.1369 82.4931 10.6414C81.6316 10.1459 80.6299 9.89813 79.488 9.89813C78.3672 9.89813 77.376 10.1425 76.5144 10.6313C75.6529 11.12 74.9769 11.8021 74.4865 12.6778C73.9962 13.5466 73.751 14.5546 73.751 15.7018C73.751 16.8353 73.9892 17.84 74.4655 18.7156C74.9488 19.5845 75.6213 20.2666 76.4829 20.7621C77.3446 21.2577 78.3462 21.5054 79.488 21.5054ZM79.488 18.9193C78.5984 18.9193 77.9225 18.6308 77.4601 18.0538C77.0048 17.4701 76.7771 16.6861 76.7771 15.7018C76.7771 14.7447 76.9943 13.9709 77.4286 13.3803C77.8699 12.783 78.5564 12.4843 79.488 12.4843C80.3917 12.4843 81.0712 12.7762 81.5265 13.36C81.9888 13.9437 82.22 14.7243 82.22 15.7018C82.22 16.6453 81.9923 17.4191 81.537 18.0233C81.0887 18.6205 80.4057 18.9193 79.488 18.9193Z" fill="#E62E05"/>
<path d="M90.8986 21.5054C91.431 21.5054 91.9214 21.4443 92.3697 21.3221C92.825 21.2 93.2383 21.0269 93.6096 20.8029V21.9127C93.6236 22.32 93.515 22.6593 93.2838 22.9309C93.0597 23.2092 92.7585 23.4162 92.3802 23.552C92.0019 23.6945 91.5991 23.7658 91.1719 23.7658C90.7726 23.7658 90.4013 23.6809 90.0581 23.5113C89.7218 23.3416 89.4626 23.0938 89.2805 22.768L86.6327 24.0101C87.0669 24.7228 87.6869 25.2965 88.4925 25.7309C89.2981 26.1721 90.1842 26.3927 91.1508 26.3927C91.9844 26.3927 92.7585 26.284 93.473 26.0668C94.1875 25.8564 94.7899 25.5341 95.2802 25.0996C95.7776 24.6652 96.1174 24.112 96.2995 23.44C96.3625 23.2024 96.4045 22.9614 96.4256 22.717C96.4536 22.4795 96.4676 22.2249 96.4676 21.9534V10.2036H93.9668V10.8145C93.5815 10.5226 93.1437 10.2986 92.6534 10.1425C92.17 9.97957 91.6342 9.89813 91.0457 9.89813C89.96 9.89813 89.0143 10.1493 88.2088 10.6516C87.4032 11.1539 86.7763 11.8429 86.328 12.7185C85.8866 13.5873 85.666 14.5818 85.666 15.7018C85.666 16.8014 85.8831 17.789 86.3175 18.6647C86.7588 19.5403 87.3717 20.2327 88.1562 20.7418C88.9408 21.2509 89.8549 21.5054 90.8986 21.5054ZM91.361 19.0414C90.7446 19.0414 90.2402 18.8921 89.8479 18.5934C89.4557 18.2948 89.1649 17.8943 88.9759 17.392C88.7867 16.8829 88.6921 16.3195 88.6921 15.7018C88.6921 15.0909 88.7902 14.5343 88.9863 14.032C89.1825 13.5229 89.4837 13.119 89.8899 12.8203C90.3032 12.5149 90.8286 12.3621 91.4661 12.3621C92.3627 12.3621 93.0036 12.671 93.3889 13.2887C93.7742 13.8996 93.9668 14.704 93.9668 15.7018C93.9668 16.6996 93.7707 17.5073 93.3784 18.125C92.9931 18.736 92.3207 19.0414 91.361 19.0414Z" fill="#E62E05"/>
<path d="M103.256 21.5054C104.39 21.5054 105.389 21.261 106.25 20.7723C107.119 20.2768 107.795 19.5946 108.278 18.7258C108.768 17.8501 109.013 16.8421 109.013 15.7018C109.013 14.5682 108.772 13.567 108.289 12.6981C107.806 11.8225 107.129 11.1369 106.261 10.6414C105.399 10.1459 104.397 9.89813 103.256 9.89813C102.135 9.89813 101.144 10.1425 100.282 10.6313C99.4205 11.12 98.7445 11.8021 98.2541 12.6778C97.7638 13.5466 97.5186 14.5546 97.5186 15.7018C97.5186 16.8353 97.7567 17.84 98.2331 18.7156C98.7164 19.5845 99.3889 20.2666 100.25 20.7621C101.112 21.2577 102.114 21.5054 103.256 21.5054ZM103.256 18.9193C102.366 18.9193 101.69 18.6308 101.228 18.0538C100.772 17.4701 100.545 16.6861 100.545 15.7018C100.545 14.7447 100.762 13.9709 101.196 13.3803C101.637 12.783 102.324 12.4843 103.256 12.4843C104.159 12.4843 104.839 12.7762 105.294 13.36C105.756 13.9437 105.988 14.7243 105.988 15.7018C105.988 16.6453 105.76 17.4191 105.305 18.0233C104.856 18.6205 104.173 18.9193 103.256 18.9193Z" fill="#E62E05"/>
<path d="M110.273 8.67633H113.132V6.23273H110.273V8.67633ZM110.273 21.2H113.132V10.2036H110.273V21.2Z" fill="black"/>
<path d="M115 26.0873H117.879V20.8029C118.25 21.0269 118.66 21.2 119.108 21.3221C119.564 21.4443 120.058 21.5054 120.59 21.5054C121.634 21.5054 122.548 21.2509 123.333 20.7418C124.117 20.2327 124.726 19.5403 125.16 18.6647C125.602 17.789 125.823 16.8014 125.823 15.7018C125.823 14.5818 125.599 13.5873 125.151 12.7185C124.709 11.8429 124.086 11.1539 123.28 10.6516C122.474 10.1493 121.529 9.89813 120.443 9.89813C119.854 9.89813 119.315 9.97957 118.825 10.1425C118.341 10.2986 117.907 10.5226 117.522 10.8145V10.2036H115V26.0873ZM120.128 19.0414C119.175 19.0414 118.503 18.736 118.11 18.125C117.718 17.5073 117.522 16.6996 117.522 15.7018C117.522 14.704 117.715 13.8996 118.1 13.2887C118.492 12.671 119.133 12.3621 120.023 12.3621C120.66 12.3621 121.182 12.5149 121.588 12.8203C122.002 13.119 122.306 13.5229 122.502 14.032C122.699 14.5343 122.797 15.0909 122.797 15.7018C122.797 16.3195 122.702 16.8829 122.513 17.392C122.324 17.8943 122.033 18.2948 121.641 18.5934C121.249 18.8921 120.744 19.0414 120.128 19.0414Z" fill="black"/>
<path d="M131 21.5054C132.485 21.5054 133.648 21.183 134.489 20.5381C135.329 19.8933 135.749 19.0075 135.749 17.8807C135.749 17.0254 135.476 16.3501 134.93 15.8545C134.39 15.359 133.473 14.9483 132.177 14.6225C131.294 14.4053 130.636 14.2288 130.201 14.093C129.775 13.9573 129.491 13.8249 129.35 13.696C129.217 13.567 129.151 13.4075 129.151 13.2174C129.151 12.8984 129.308 12.6541 129.623 12.4843C129.946 12.3146 130.37 12.2468 130.895 12.2807C132.009 12.3621 132.619 12.8237 132.723 13.6654L135.644 13.1563C135.497 12.1585 134.993 11.3677 134.131 10.784C133.27 10.1934 132.17 9.89813 130.832 9.89813C129.459 9.89813 128.363 10.2104 127.543 10.8349C126.724 11.4593 126.314 12.301 126.314 13.36C126.314 14.2017 126.598 14.8669 127.165 15.3556C127.732 15.8376 128.71 16.2516 130.096 16.5978C130.916 16.8082 131.518 16.9779 131.904 17.1069C132.296 17.2358 132.548 17.3682 132.66 17.504C132.772 17.6329 132.828 17.8061 132.828 18.0233C132.828 18.3694 132.688 18.6409 132.408 18.8378C132.128 19.0278 131.729 19.1229 131.21 19.1229C130.579 19.1229 130.058 18.9769 129.645 18.685C129.239 18.3932 128.975 17.9893 128.856 17.4734L125.936 17.901C126.125 19.0482 126.657 19.9374 127.533 20.5687C128.416 21.1932 129.571 21.5054 131 21.5054Z" fill="black"/>
<path d="M141.021 21.5259C141.841 21.5259 142.555 21.3935 143.165 21.1287C143.774 20.864 144.285 20.5111 144.699 20.0699V21.2H147.22V10.2036H144.342V15.7833C144.342 16.4621 144.261 17.0119 144.1 17.4327C143.946 17.8468 143.746 18.1624 143.501 18.3796C143.256 18.5901 142.993 18.7326 142.713 18.8073C142.433 18.8819 142.17 18.9193 141.925 18.9193C141.316 18.9193 140.843 18.7869 140.507 18.5222C140.177 18.2575 139.939 17.9283 139.792 17.5346C139.645 17.1408 139.557 16.7506 139.529 16.3636C139.501 15.9699 139.487 15.6475 139.487 15.3963V10.2036H136.587V16.3739C136.587 16.5571 136.601 16.849 136.629 17.2495C136.657 17.6499 136.738 18.0946 136.871 18.5833C137.004 19.0652 137.224 19.5302 137.533 19.9782C137.848 20.4262 138.286 20.7961 138.847 21.088C139.406 21.3799 140.132 21.5259 141.021 21.5259Z" fill="black"/>
<path d="M148.876 21.2H151.755V14.5411C151.755 13.9099 151.933 13.3974 152.291 13.0036C152.655 12.6031 153.134 12.4029 153.73 12.4029C154.354 12.4029 154.841 12.6066 155.191 13.0139C155.548 13.4143 155.727 13.9777 155.727 14.704V21.2H158.585V14.5411C158.585 13.9099 158.763 13.3974 159.121 13.0036C159.485 12.6031 159.964 12.4029 160.56 12.4029C161.184 12.4029 161.67 12.6066 162.02 13.0139C162.378 13.4143 162.557 13.9777 162.557 14.704V21.2H165.414V13.9709C165.414 12.7695 165.081 11.7988 164.416 11.0589C163.758 10.3123 162.78 9.9389 161.484 9.9389C160.756 9.9389 160.087 10.0916 159.477 10.3971C158.868 10.7026 158.382 11.12 158.017 11.6495C157.723 11.1336 157.303 10.7195 156.756 10.4073C156.21 10.0951 155.53 9.9389 154.718 9.9389C154.031 9.9389 153.401 10.0713 152.826 10.336C152.252 10.5939 151.775 10.9503 151.397 11.4051V10.2036H148.876V21.2Z" fill="black"/>
<g clip-path="url(#clip0_578_6257)">
<path d="M52.4552 15.5484L52.1154 15.5269H48.9111C50.081 16 52.524 16.9806 52.5068 16.9806L57.7455 19.2516C58.0681 18.0903 58.1972 16.843 58.1929 15.5527H52.4552V15.5484Z" fill="#FFE6D5"/>
<path d="M40.541 13.9828L49.384 7.10965V7.10105C48.9195 6.57201 48.4421 6.06879 47.9604 5.59137L40.541 13.9785V13.9828Z" fill="#FFE6D5"/>
<path d="M43.5 14.5161H54.3989C54.0505 13.8365 53.6806 13.1656 53.2892 12.5075L52.5968 11.3333L47.5516 13.0968L43.5 14.5161Z" fill="#FFE6D5"/>
<path d="M47.9613 5.5914L47.957 5.5871L43.6344 5.9914L43.6172 5.9957L47.9613 5.5914Z" fill="#FFE6D5"/>
<path d="M46.735 12.3097L50.6619 7.72903L50.6576 7.72473L46.7307 12.3054H46.6963L46.735 12.3097Z" fill="#FFE6D5"/>
<path d="M43.4451 1.32043C43.4451 1.32043 43.4451 1.32043 43.4408 1.32043L40.6107 6.27097L39.6817 6.35699L35.8623 12.8602C37.4752 13.0968 39.0494 13.4753 40.5419 13.9871L43.4451 1.32474V1.32043Z" fill="#FFE6D5"/>
<path d="M14.6062 9.23868L14.6234 8.96771C14.2277 6.77846 13.7159 4.47308 13.3589 2.32255C13.9696 1.86233 14.5847 1.44943 15.1997 1.09674C13.5997 2.00857 11.9868 3.329 10.46 4.9161L14.6062 9.23868Z" fill="#FFE6D5"/>
<path d="M35.7802 25.6731V25.6559L33.8232 32.0043C34.5716 31.9613 35.3114 31.901 36.0512 31.8236L35.7845 25.6731H35.7802Z" fill="#FFE6D5"/>
<path d="M12.1712 15.5269H7.26363L0.902344 18.2451C1.22923 19.8623 1.85718 21.3419 2.84213 22.6107H2.85503L12.1798 15.5312C13.6851 15.9785 15.3884 16.3656 17.2593 16.6838C15.3884 16.3656 13.6851 15.9785 12.1755 15.5312L12.1712 15.5269Z" fill="#FFE6D5"/>
<path d="M7.37207 27.6086C6.56347 27.1054 5.80648 26.5591 5.10971 25.9613L7.58282 22.7785V22.7699L3.16992 23.9312C3.20863 23.9828 3.24304 24.0387 3.28175 24.0903C4.38713 25.4581 5.78067 26.6194 7.37207 27.6043V27.6086Z" fill="#FFE6D5"/>
<path d="M31.7026 2.88598L31.7069 2.87738L29.0488 4.12899H29.0531L31.7026 2.88598Z" fill="#FFE6D5"/>
<path d="M16.3732 2.28817L15.7754 10.4387L19.2636 14.0731C19.2636 14.0731 19.2636 14.0731 19.2679 14.0731L19.7539 7.32473L16.3775 2.29247C17.6636 1.55269 20.2786 0 20.2829 0C20.2829 0 17.6679 1.54839 16.3775 2.28387L16.3732 2.28817Z" fill="#FFE6D5"/>
<path d="M22.6832 9.11828V9.13118L25.0144 12.7441L25.0187 12.7527H25.023L25.0187 12.7441L28.709 6.45591L28.7047 6.45161L20.2832 0L22.6832 9.11828Z" fill="#FFE6D5"/>
<path d="M37.8271 0L38.3476 5.5871L39.3712 5.37634L39.3755 5.36774L37.8271 0Z" fill="#FFE6D5"/>
<path d="M29.7071 6.98925L29.4189 12.5462C29.5222 12.5462 29.6254 12.5333 29.7329 12.5376C30.1372 12.5376 30.5372 12.5548 30.9458 12.5634C32.0512 12.5978 33.148 12.6968 34.2318 12.8559V12.8473L34.2706 5.31613L29.7114 6.99355L29.7071 6.98925Z" fill="#FFE6D5"/>
<path d="M0.253763 17.6H0.258065C0.12043 16.929 0.0387097 16.2366 0.00430108 15.5312H5.13978H1.88387H0C0.0387097 16.2409 0.12043 16.9333 0.253763 17.6043V17.6Z" fill="#FFE6D5"/>
<path d="M2.98907 14.5161C3.43638 13.6 3.9181 12.7011 4.43853 11.8236L6.96757 14.5161H14.2966C15.1138 14.1032 15.9697 13.7419 16.8557 13.4279L5.34606 10.3785C6.52886 8.58062 7.84498 6.91181 9.22993 5.47095C7.84498 6.90751 6.52886 8.57632 5.34176 10.3742L9.30305 12.8559L4.43423 11.8193C3.9138 12.6968 3.43208 13.5957 2.98047 14.5118H2.98477L2.98907 14.5161Z" fill="#FFE6D5"/>
<path d="M20.9109 26.1849H20.9066L19.0528 27.8924L18.9066 28.0301V28.0172L17.1345 29.6301L17.6722 24.9419V24.9333L14.3604 30.1548C14.7259 30.2537 15.1087 30.3526 15.513 30.4516C15.513 30.4516 18.3259 31.1655 20.2442 31.5139L20.9152 26.1806L20.9109 26.1849Z" fill="#FFE6D5"/>
<path d="M44.1761 18.529L46.2535 15.4365H46.2492C46.146 15.4666 46.0342 15.4967 45.9266 15.5268C44.0514 16.0817 41.8664 16.5462 39.4492 16.8946C39.5137 16.886 39.5782 16.8774 39.6428 16.8688L44.1503 18.5204H44.1546L49.8492 25.5096C50.9589 24.7053 51.9438 23.7978 52.7739 22.7742C52.8557 22.6709 52.9331 22.5677 53.0105 22.4645L44.1761 18.5333V18.529Z" fill="#FFE6D5"/>
<path d="M44.1543 18.5204V18.5678L44.5887 29.7161C45.7973 29.3247 46.95 28.8602 48.0296 28.3312L44.1543 18.5204Z" fill="#FFE6D5"/>
<path d="M38.7949 16.9849C38.8508 16.9763 38.9111 16.972 38.967 16.9634C39.0444 16.9548 39.1218 16.9419 39.1992 16.929C37.7627 17.1312 36.2444 17.2903 34.6659 17.4021L34.5928 18.5548V18.5677L35.668 21.8839V21.8925L38.2315 29.9054C38.2315 29.9054 38.2315 29.9054 38.2358 29.9054L38.7949 16.9849Z" fill="#FFE6D5"/>
<path d="M27.492 17.5871C28.0081 17.5957 28.5286 17.6043 29.0533 17.6043C30.8296 17.6043 32.5587 17.5441 34.2232 17.4365C32.5544 17.5441 30.8253 17.6 29.049 17.6C28.5243 17.6 28.0038 17.5914 27.4877 17.5828L26.4468 23.4408L26.0898 18.2709L26.8468 30.4602C27.4748 30.4602 28.107 30.4473 28.7393 30.4215C30.3995 30.4946 32.064 30.4817 33.707 30.3914L27.4877 17.5871H27.492Z" fill="#FFE6D5"/>
<path d="M18.271 16.843C20.6581 17.2 23.2731 17.4408 26.043 17.5484C23.2602 17.4408 20.6236 17.2 18.2279 16.8387L17.8107 19.1355L17.7247 19.7419L8.99354 22.043L8.80859 26.2881C10.6667 27.4408 12.2064 28.0645 14.357 28.6451L14.3699 28.6236L17.7247 19.7376L8.80859 26.2881L8.99354 22.043L17.7247 19.7419L17.8495 23.1398L19.2129 26.2365L20.9075 24.6709L26.8473 30.4645L20.9118 24.6752L18.271 16.8473V16.843Z" fill="#FFE6D5"/>
<path d="M13.3588 2.31827C13.7158 4.46881 14.2276 6.77418 14.6233 8.96343C14.6233 8.97203 14.6233 8.97633 14.6233 8.98064L15.1997 1.08386C15.1997 1.08386 15.1997 1.08386 15.1954 1.08386C14.5803 1.43655 13.9652 1.84945 13.3545 2.30967L13.3588 2.31827Z" fill="#E62E05"/>
<path d="M1.75874 15.5312H0.00390625C0.0383149 16.2409 0.124336 16.929 0.25767 17.6L5.14369 15.5312H1.75444H1.75874Z" fill="#E62E05"/>
<path d="M5.3457 10.3785L16.8554 13.4279H16.8597L9.22957 5.47095C7.84463 6.91181 6.5285 8.57632 5.3457 10.3785Z" fill="#E62E05"/>
<path d="M4.43872 11.8237C3.91829 12.7011 3.43657 13.6 2.98926 14.5161H6.97205L4.44302 11.8237H4.43872Z" fill="#E62E05"/>
<path d="M16.3779 2.28817L19.7543 7.32043L19.2683 14.0688C19.6295 13.9441 19.9908 13.8237 20.3607 13.7118C21.393 13.3978 22.4597 13.1527 23.5435 12.9677L22.6833 9.12688V9.11828L20.2833 0C20.2833 0 17.6683 1.54839 16.3779 2.28817Z" fill="#E62E05"/>
<path d="M28.7047 6.45161L28.709 6.45591L31.7112 2.87742L31.7026 2.88602L29.0531 4.12903H29.0488L20.2832 0L28.7047 6.45161Z" fill="#E62E05"/>
<path d="M25.0189 12.7441V12.7527C26.1458 12.6193 27.2899 12.5505 28.4297 12.5505V12.5419L28.7093 6.4516H28.705L25.0146 12.7484L25.0189 12.7441Z" fill="#E62E05"/>
<path d="M29.7109 6.99355L34.2701 5.31613L34.2357 12.8473V12.8559L38.3518 5.5914L37.8271 0L39.3755 5.36774V5.37634L41.3798 1.87957C40.5238 1.50538 37.8271 0 37.8271 0L34.283 1.66882L29.7109 6.99355Z" fill="#E62E05"/>
<path d="M43.4442 1.32043L40.541 13.9828L47.9604 5.5957L43.6206 5.9957H43.6335L47.6593 4.4C45.87 2.63656 45.2851 2.12474 43.4442 1.32043Z" fill="#E62E05"/>
<path d="M40.5414 13.9828C41.0231 14.1462 41.5006 14.3269 41.9651 14.5204H43.5049L47.5565 13.1011L52.6016 11.3376L50.6575 7.73334L46.7307 12.314H46.6919L49.3887 7.10968L49.3801 7.11828L40.5371 13.9914L40.5414 13.9828Z" fill="#E62E05"/>
<path d="M12.1806 15.5312L2.85586 22.6064H2.85156L7.26447 21.4494L16.8645 18.9376L17.2645 16.6795C17.2645 16.6795 17.2645 16.6795 17.2602 16.6795C15.3892 16.3656 13.686 15.9742 12.1806 15.5269V15.5312Z" fill="#E62E05"/>
<path d="M5.10938 25.9613C5.80185 26.5591 6.56314 27.1054 7.37174 27.6086C7.37174 27.6086 7.37174 27.6086 7.37604 27.6086L7.58679 22.7699V22.7785L5.10938 25.9613Z" fill="#E62E05"/>
<path d="M8.99354 22.0387L8.80859 26.2881L17.7247 19.7376L8.99354 22.0387Z" fill="#E62E05"/>
<path d="M17.7242 19.7376L14.3693 28.6236L14.3564 28.6451L17.8489 23.1398V23.1355L17.7242 19.7376Z" fill="#E62E05"/>
<path d="M17.1309 29.6344L18.8986 28.0172H18.9029L17.6642 24.9376V24.9462L17.1309 29.6344Z" fill="#E62E05"/>
<path d="M25.5525 31.9741L20.9073 26.1806L20.2363 31.5139C20.6277 31.5871 20.9847 31.643 21.2686 31.6774L22.6406 31.8064C24.0299 31.9182 24.1374 31.9742 25.5525 31.9699V31.9741Z" fill="#E62E05"/>
<path d="M26.0899 18.2709L26.0469 17.5441H26.0426C23.2727 17.4408 20.6576 17.2 18.2705 16.8387L20.9114 24.6666L26.8469 30.4559L26.0899 18.2666V18.2709Z" fill="#E62E05"/>
<path d="M38.348 31.5182L35.7803 25.6559V25.6731L36.0512 31.8236C36.8254 31.7462 37.5953 31.643 38.3523 31.5226L38.348 31.5182Z" fill="#E62E05"/>
<path d="M44.1543 18.5204L48.0296 28.3312C49.0231 27.8495 49.9607 27.3032 50.8167 26.6968L49.8489 25.5097L44.1543 18.5204Z" fill="#E62E05"/>
<path d="M34.5978 18.5677V18.5548L34.2322 17.4323C32.5676 17.5398 30.8386 17.6 29.0623 17.6C28.5375 17.6 28.0171 17.5914 27.501 17.5828L33.7203 30.3828V30.3914L35.673 21.8925V21.8839L34.6021 18.5677H34.5978Z" fill="#E62E05"/>
<path d="M44.1503 18.5161L39.6428 16.8645C39.5783 16.8731 39.5137 16.8817 39.4492 16.8903C39.3675 16.9032 39.2858 16.9118 39.1998 16.9247C39.1223 16.9376 39.0449 16.9462 38.9675 16.9591C38.9116 16.9677 38.8514 16.972 38.7955 16.9806L38.2363 29.9011C40.0557 29.6086 41.8019 29.1957 43.4492 28.658L44.1503 18.5591V18.5118V18.5161Z" fill="#E62E05"/>
<path d="M54.4252 19.7333C54.4683 19.6043 54.5113 19.4752 54.55 19.3462C54.5801 19.2516 54.6145 19.1656 54.6403 19.0709L46.4683 15.5311L46.2532 15.4365L44.1758 18.529L53.0102 22.4602H53.0145C53.0145 22.4602 53.0446 22.4172 53.0575 22.3957C53.2037 22.1978 53.3371 21.9957 53.4618 21.7892C53.5048 21.7161 53.5521 21.643 53.5951 21.5699C53.7113 21.372 53.8188 21.1699 53.9177 20.9634C53.965 20.8688 54.008 20.7742 54.0468 20.6795C54.1285 20.5032 54.2016 20.3268 54.2704 20.1462C54.322 20.0129 54.3693 19.8752 54.4209 19.7333H54.4252Z" fill="#E62E05"/>
</g>
<defs>
<clipPath id="clip0_578_6257">
<rect width="58.1936" height="32" fill="white"/>
</clipPath>
</defs>
</svg>
