<svg width="142" height="32" viewBox="0 0 142 32" fill="none" xmlns="http://www.w3.org/2000/svg">
<g clip-path="url(#clip0_284_2022)">
<path d="M40.4834 23.2H49.856V20.6138H43.3414V8.53815H40.4834V23.2Z" fill="#0C111D"/>
<path d="M55.488 23.5054C56.6229 23.5054 57.6211 23.261 58.4827 22.7723C59.3513 22.2768 60.0272 21.5946 60.5106 20.7258C61.0009 19.8501 61.2461 18.8421 61.2461 17.7018C61.2461 16.5682 61.0044 15.567 60.5211 14.6981C60.0377 13.8225 59.3617 13.1369 58.4931 12.6414C57.6316 12.1459 56.6299 11.8981 55.488 11.8981C54.3672 11.8981 53.376 12.1425 52.5144 12.6313C51.6529 13.12 50.9769 13.8021 50.4865 14.6778C49.9962 15.5466 49.751 16.5546 49.751 17.7018C49.751 18.8353 49.9892 19.84 50.4655 20.7156C50.9488 21.5845 51.6213 22.2666 52.4829 22.7621C53.3446 23.2577 54.3462 23.5054 55.488 23.5054ZM55.488 20.9193C54.5984 20.9193 53.9225 20.6308 53.4601 20.0538C53.0048 19.4701 52.7771 18.6861 52.7771 17.7018C52.7771 16.7447 52.9943 15.9709 53.4286 15.3803C53.8699 14.783 54.5564 14.4843 55.488 14.4843C56.3917 14.4843 57.0712 14.7762 57.5265 15.36C57.9888 15.9437 58.22 16.7243 58.22 17.7018C58.22 18.6453 57.9923 19.4191 57.537 20.0233C57.0887 20.6205 56.4057 20.9193 55.488 20.9193Z" fill="#0C111D"/>
<path d="M66.8986 23.5054C67.431 23.5054 67.9214 23.4443 68.3697 23.3221C68.825 23.2 69.2383 23.0269 69.6096 22.8029V23.9127C69.6236 24.32 69.515 24.6593 69.2838 24.9309C69.0597 25.2092 68.7585 25.4162 68.3802 25.552C68.0019 25.6945 67.5991 25.7658 67.1719 25.7658C66.7726 25.7658 66.4013 25.6809 66.0581 25.5113C65.7218 25.3416 65.4626 25.0938 65.2805 24.768L62.6327 26.0101C63.0669 26.7228 63.6869 27.2965 64.4925 27.7309C65.2981 28.1721 66.1842 28.3927 67.1508 28.3927C67.9844 28.3927 68.7585 28.284 69.473 28.0668C70.1875 27.8564 70.7899 27.5341 71.2802 27.0996C71.7776 26.6652 72.1174 26.112 72.2995 25.44C72.3625 25.2024 72.4045 24.9614 72.4256 24.717C72.4536 24.4795 72.4676 24.2249 72.4676 23.9534V12.2036H69.9668V12.8145C69.5815 12.5226 69.1437 12.2986 68.6534 12.1425C68.17 11.9796 67.6342 11.8981 67.0457 11.8981C65.96 11.8981 65.0143 12.1493 64.2088 12.6516C63.4032 13.1539 62.7763 13.8429 62.328 14.7185C61.8866 15.5873 61.666 16.5818 61.666 17.7018C61.666 18.8014 61.8831 19.789 62.3175 20.6647C62.7588 21.5403 63.3717 22.2327 64.1562 22.7418C64.9408 23.2509 65.8549 23.5054 66.8986 23.5054ZM67.361 21.0414C66.7446 21.0414 66.2402 20.8921 65.8479 20.5934C65.4557 20.2948 65.1649 19.8943 64.9759 19.392C64.7867 18.8829 64.6921 18.3195 64.6921 17.7018C64.6921 17.0909 64.7902 16.5343 64.9863 16.032C65.1825 15.5229 65.4837 15.119 65.8899 14.8203C66.3032 14.5149 66.8286 14.3621 67.4661 14.3621C68.3627 14.3621 69.0036 14.671 69.3889 15.2887C69.7742 15.8996 69.9668 16.704 69.9668 17.7018C69.9668 18.6996 69.7707 19.5073 69.3784 20.125C68.9931 20.736 68.3207 21.0414 67.361 21.0414Z" fill="#0C111D"/>
<path d="M79.2556 23.5054C80.3905 23.5054 81.3887 23.261 82.2502 22.7723C83.1187 22.2768 83.7948 21.5946 84.2778 20.7258C84.7682 19.8501 85.0134 18.8421 85.0134 17.7018C85.0134 16.5682 84.7723 15.567 84.2885 14.6981C83.8055 13.8225 83.1294 13.1369 82.2607 12.6414C81.3991 12.1459 80.3974 11.8981 79.2556 11.8981C78.1348 11.8981 77.1436 12.1425 76.282 12.6313C75.4205 13.12 74.7445 13.8021 74.2541 14.6778C73.7638 15.5466 73.5186 16.5546 73.5186 17.7018C73.5186 18.8353 73.7567 19.84 74.2331 20.7156C74.7164 21.5845 75.3889 22.2666 76.2505 22.7621C77.1121 23.2577 78.1138 23.5054 79.2556 23.5054ZM79.2556 20.9193C78.366 20.9193 77.69 20.6308 77.2276 20.0538C76.7723 19.4701 76.5447 18.6861 76.5447 17.7018C76.5447 16.7447 76.7619 15.9709 77.1962 15.3803C77.6375 14.783 78.3239 14.4843 79.2556 14.4843C80.1593 14.4843 80.8387 14.7762 81.2941 15.36C81.7564 15.9437 81.9875 16.7243 81.9875 17.7018C81.9875 18.6453 81.7598 19.4191 81.3045 20.0233C80.8562 20.6205 80.1732 20.9193 79.2556 20.9193Z" fill="#0C111D"/>
<path d="M86.2734 10.6763H89.1316V8.23273H86.2734V10.6763ZM86.2734 23.2H89.1316V12.2036H86.2734V23.2Z" fill="#0C111D"/>
<path d="M91 28.0873H93.8788V22.8029C94.2503 23.0269 94.6598 23.2 95.1081 23.3221C95.5638 23.4443 96.0575 23.5054 96.59 23.5054C97.6335 23.5054 98.5483 23.2509 99.3326 22.7418C100.117 22.2327 100.726 21.5403 101.16 20.6647C101.602 19.789 101.823 18.8014 101.823 17.7018C101.823 16.5818 101.599 15.5873 101.151 14.7185C100.709 13.8429 100.086 13.1539 99.2798 12.6516C98.474 12.1493 97.5287 11.8981 96.4431 11.8981C95.8544 11.8981 95.3153 11.9796 94.8249 12.1425C94.3411 12.2986 93.9069 12.5226 93.5222 12.8145V12.2036H91V28.0873ZM96.1277 21.0414C95.175 21.0414 94.5029 20.736 94.11 20.125C93.7178 19.5073 93.5222 18.6996 93.5222 17.7018C93.5222 16.704 93.7145 15.8996 94.1001 15.2887C94.4922 14.671 95.1329 14.3621 96.0228 14.3621C96.6602 14.3621 97.182 14.5149 97.5881 14.8203C98.0018 15.119 98.3064 15.5229 98.5021 16.032C98.6985 16.5343 98.7968 17.0909 98.7968 17.7018C98.7968 18.3195 98.7018 18.8829 98.5128 19.392C98.3237 19.8943 98.0331 20.2948 97.641 20.5934C97.2488 20.8921 96.7444 21.0414 96.1277 21.0414Z" fill="#0C111D"/>
<path d="M107 23.5054C108.485 23.5054 109.648 23.183 110.489 22.5381C111.329 21.8933 111.749 21.0075 111.749 19.8807C111.749 19.0254 111.476 18.3501 110.93 17.8545C110.39 17.359 109.473 16.9483 108.177 16.6225C107.294 16.4053 106.636 16.2288 106.201 16.093C105.775 15.9573 105.491 15.8249 105.35 15.696C105.217 15.567 105.151 15.4075 105.151 15.2174C105.151 14.8984 105.308 14.6541 105.623 14.4843C105.946 14.3146 106.37 14.2468 106.895 14.2807C108.009 14.3621 108.619 14.8237 108.723 15.6654L111.644 15.1563C111.497 14.1585 110.993 13.3677 110.131 12.784C109.27 12.1934 108.17 11.8981 106.832 11.8981C105.459 11.8981 104.363 12.2104 103.543 12.8349C102.724 13.4593 102.314 14.301 102.314 15.36C102.314 16.2017 102.598 16.8669 103.165 17.3556C103.732 17.8376 104.71 18.2516 106.096 18.5978C106.916 18.8082 107.518 18.9779 107.904 19.1069C108.296 19.2358 108.548 19.3682 108.66 19.504C108.772 19.6329 108.828 19.8061 108.828 20.0233C108.828 20.3694 108.688 20.6409 108.408 20.8378C108.128 21.0278 107.729 21.1229 107.21 21.1229C106.579 21.1229 106.058 20.9769 105.645 20.685C105.239 20.3932 104.975 19.9893 104.856 19.4734L101.936 19.901C102.125 21.0482 102.657 21.9374 103.533 22.5687C104.416 23.1932 105.571 23.5054 107 23.5054Z" fill="#0C111D"/>
<path d="M117.021 23.5259C117.841 23.5259 118.555 23.3935 119.165 23.1287C119.774 22.864 120.285 22.5111 120.699 22.0699V23.2H123.22V12.2036H120.342V17.7833C120.342 18.4621 120.261 19.0119 120.1 19.4327C119.946 19.8468 119.746 20.1624 119.501 20.3796C119.256 20.5901 118.993 20.7326 118.713 20.8073C118.433 20.8819 118.17 20.9193 117.925 20.9193C117.316 20.9193 116.843 20.7869 116.507 20.5222C116.177 20.2575 115.939 19.9283 115.792 19.5346C115.645 19.1408 115.557 18.7506 115.529 18.3636C115.501 17.9699 115.487 17.6475 115.487 17.3963V12.2036H112.587V18.3739C112.587 18.5571 112.601 18.849 112.629 19.2495C112.657 19.6499 112.738 20.0946 112.871 20.5833C113.004 21.0652 113.224 21.5302 113.533 21.9782C113.848 22.4262 114.286 22.7961 114.847 23.088C115.406 23.3799 116.132 23.5259 117.021 23.5259Z" fill="#0C111D"/>
<path d="M124.876 23.2H127.755V16.5411C127.755 15.9099 127.933 15.3974 128.291 15.0036C128.655 14.6031 129.134 14.4029 129.73 14.4029C130.354 14.4029 130.841 14.6066 131.191 15.0139C131.548 15.4143 131.727 15.9777 131.727 16.704V23.2H134.585V16.5411C134.585 15.9099 134.763 15.3974 135.121 15.0036C135.485 14.6031 135.964 14.4029 136.56 14.4029C137.184 14.4029 137.67 14.6066 138.02 15.0139C138.378 15.4143 138.557 15.9777 138.557 16.704V23.2H141.414V15.9709C141.414 14.7695 141.081 13.7988 140.416 13.0589C139.758 12.3123 138.78 11.9389 137.484 11.9389C136.756 11.9389 136.087 12.0916 135.477 12.3971C134.868 12.7026 134.382 13.12 134.017 13.6495C133.723 13.1336 133.303 12.7195 132.756 12.4073C132.21 12.0951 131.53 11.9389 130.718 11.9389C130.031 11.9389 129.401 12.0713 128.826 12.336C128.252 12.5939 127.775 12.9503 127.397 13.4051V12.2036H124.876V23.2Z" fill="#0C111D"/>
<path d="M16.5116 0C7.3925 0 0 7.16344 0 16C9.11912 16 16.5116 8.83656 16.5116 0Z" fill="#101828" fill-opacity="0.24"/>
<path d="M16.5117 32C25.6308 32 33.0233 24.8366 33.0233 16C23.9042 16 16.5117 23.1634 16.5117 32Z" fill="#101828" fill-opacity="0.24"/>
<path d="M16.5117 0C25.6308 0 33.0233 7.16344 33.0233 16C23.9042 16 16.5117 8.83656 16.5117 0Z" fill="#0C111D"/>
<path d="M16.5116 32C7.3925 32 -7.97218e-07 24.8366 0 16C9.11912 16 16.5116 23.1634 16.5116 32Z" fill="#0C111D"/>
</g>
<defs>
<clipPath id="clip0_284_2022">
<rect width="142" height="32" fill="white"/>
</clipPath>
</defs>
</svg>
